<svg
  xmlns="http://www.w3.org/2000/svg"
  viewBox="-500 -100 1000 200"
  height="2em"
>
  <style>
    .text {
      font-size: 100px;
      text-anchor: middle;
      dominant-baseline: middle;
      transform: translateY(8px);
    }

    .cursor {
      fill: none;
      stroke: #000000;
      stroke-width: 10;
      stroke-linecap: round;
    }

    .highlight {
      fill: #1e88e5;
      opacity: 0.2;
    }

    .bubble {
      fill: #ffffff;
      stroke: black;
      stroke-width: 5;
      stroke-linejoin: round;
    }

    .grow {
      animation: grow 3s ease-in-out infinite both;
    }

    @keyframes grow {
      0% {
        clip-path: inset(0 0 0 100%);
      }
      30% {
        clip-path: inset(0 0 0 0);
      }
    }

    .slide {
      animation: slide 3s ease-in-out infinite both;
    }

    @keyframes slide {
      30% {
        transform: translateX(-460px);
      }
      100% {
        transform: translateX(-460px);
      }
    }

    .fade {
      animation: fade 3s ease-in-out infinite both;
    }

    @keyframes fade {
      0% {
        opacity: 0;
      }
      30% {
        opacity: 0;
      }
      50% {
        opacity: 1;
      }
    }
  </style>
  <text class="text" x="-230" y="0">complex</text>
  <rect class="highlight grow" x="-460" y="-70" width="460" height="140" />
  <path
    class="cursor slide"
    d="
      M 0 60
      L 0 -60
      M 0 -60
      a 10 10 0 0 0 -10 -10
      h -10
      M 0 -60
      a 10 10 0 0 1 10 -10
      h 10
      M 0 60
      a 10 10 0 0 1 -10 10
      h -10
      M 0 60
      a 10 10 0 0 0 10 10
      h 10
    "
  />
  <path
    class="bubble fade"
    transform="translate(30, 0)"
    d="
      M 0 0
      L 20 -20
      L 20 -60
      A 10 10 0 0 1 30 -70
      L 430 -70
      A 10 10 0 0 1 440 -60
      L 440 60
      A 10 10 0 0 1 430 70
      L 30 70
      A 10 10 0 0 1 20 60
      L 20 20
      z
    "
  />
  <text class="text fade" x="260" y="0">hard</text>
</svg>
